<?xml version="1.0" encoding="UTF-8"?>
<svg width="336px" height="276px" viewBox="0 0 336 276" version="1.1" xmlns="http://www.w3.org/2000/svg" xmlns:xlink="http://www.w3.org/1999/xlink">
    <!-- Generator: Sketch 59.1 (86144) - https://sketch.com -->
    <title>cat-face</title>
    <desc>Created with Sketch.</desc>
    <g id="Page-1" stroke="none" stroke-width="1" fill="none" fill-rule="evenodd">
        <g id="cat-face" fill-rule="nonzero">
            <g id="icon">
                <path d="M286.068,106.476 C286.068,106.476 311.268,155.988 300.268,206.62 C293.968,235.576 266.552,252.96 238.304,263.32 C214.651151,271.976321 189.799213,276.122377 164.997725,275.75817 C142.198978,275.423372 119.442862,271.277316 97.7,263.32 C69.448,252.956 42.032,235.572 35.744,206.616 C24.736,155.984 49.944,106.472 49.944,106.472 C39.144,75.984 20.996,16.072 39.4,3.336 C64.364,-13.9 111.32,45.912 111.32,45.912 C135.16,30.128 168,33.432 168,33.432 C168,33.432 200.824,30.128 224.688,45.912 C224.688,45.912 271.644,-13.9 296.588,3.336 C315.016,16.084 296.856,76 286.068,106.476 Z" id="Path" fill="#FFFFFF"></path>
                <path d="M231.692,123.2 C231.310524,129.61401 227.72833,135.40595 222.16,138.612 C216.59167,135.40595 213.009476,129.61401 212.628,123.2 C212.764491,116.711002 216.415158,110.80835 222.16,107.788 C227.930606,110.780641 231.591808,116.700326 231.692,123.2 L231.692,123.2 Z" id="Path" fill="#414451"></path>
                <path d="M104.308,123.2 C104.689476,129.61401 108.27167,135.40595 113.84,138.612 C119.40833,135.40595 122.990524,129.61401 123.372,123.2 C123.235509,116.711002 119.584842,110.80835 113.84,107.788 C108.069394,110.780641 104.408192,116.700326 104.308,123.2 L104.308,123.2 Z" id="Path" fill="#414451"></path>
                <path d="M300.268,206.616 C293.972,235.564 266.564,252.956 238.296,263.324 C192.897595,279.922429 143.090405,279.922429 97.692,263.324 C69.448,252.956 42.04,235.564 35.744,206.616 L71.516,197.324 C104.148534,188.853134 130.861201,165.463794 143.568,134.236 L143.832,133.552 C146.845739,126.156649 151.613521,119.605583 157.724,114.464 C163.666941,109.468313 172.341059,109.468313 178.284,114.464 C184.387383,119.606799 189.147081,126.158075 192.152,133.552 L192.44,134.236 C205.139936,165.469491 231.855257,188.862638 264.492,197.328 L300.268,206.616 Z" id="Path" fill="#FFFFFF"></path>
                <g id="Group" transform="translate(0.000000, 177.000000)" fill="#FFFFFF">
                    <path d="M335.488,15.444 C335.386638,15.444 335.287664,15.4132243 335.204,15.356 C291.204,-14.244 224.452,13.648 223.784,13.932 C223.613505,14.0188768 223.408794,14.0034295 223.253266,13.8919514 C223.097739,13.7804732 223.017355,13.5915719 223.044864,13.4022059 C223.072373,13.21284 223.203182,13.0546181 223.384,12.992 C224.06,12.708 291.292,-15.384 335.784,14.508 C335.966197,14.6349578 336.045782,14.8648919 335.981052,15.0773162 C335.916322,15.2897405 335.722036,15.4362204 335.5,15.44 L335.488,15.444 Z" id="Path"></path>
                    <path d="M333.288,43.696 C333.13022,43.6938147 332.982414,43.6184336 332.888,43.492 C300.468,0.26 231.408,20.716 230.716,20.928 C230.454854,20.9870818 230.192285,20.8349808 230.113618,20.5790518 C230.034952,20.3231227 230.166755,20.0498009 230.416,19.952 C231.116,19.74 300.848,-0.932 333.708,42.88 C333.812632,43.0333926 333.826016,43.2314114 333.742978,43.3974888 C333.659939,43.5635663 333.493493,43.6716701 333.308,43.68 L333.288,43.696 Z" id="Path"></path>
                    <path d="M323.748,59.108 C323.59106,59.1061661 323.443631,59.0324517 323.348,58.908 C290.908,16.38 222.2,33.232 221.508,33.4 C221.236375,33.4616026 220.964021,33.2999473 220.888,33.032 C220.819694,32.7593573 220.983949,32.4826245 221.256,32.412 C221.956,32.24 291.308,15.212 324.156,58.28 C324.260632,58.4333926 324.274016,58.6314114 324.190978,58.7974888 C324.107939,58.9635663 323.941493,59.0716701 323.756,59.08 L323.748,59.108 Z" id="Path"></path>
                    <path d="M0.512,15.444 C0.289964466,15.4402204 0.0956784171,15.2937405 0.0309482734,15.0813162 C-0.0337818703,14.8688919 0.0458029214,14.6389578 0.228,14.512 C44.708,-15.38 111.948,12.712 112.628,12.996 C112.753294,13.0489103 112.852387,13.149498 112.903416,13.2755697 C112.954445,13.4016413 112.953216,13.5428358 112.9,13.668 C112.783471,13.9224181 112.488687,14.0417355 112.228,13.94 C111.556,13.656 44.82,-14.22 0.808,15.36 C0.720501238,15.4181694 0.617010434,15.4475384 0.512,15.444 L0.512,15.444 Z" id="Path"></path>
                    <path d="M2.712,43.6960357 C2.5265067,43.6876701 2.36006106,43.5795663 2.27702233,43.4134888 C2.19398361,43.2474114 2.20736793,43.0493926 2.312,42.896 C35.16,-0.928 104.896,19.74 105.6,19.948 C105.787448,19.9904082 105.93536,20.1342168 105.983024,20.3203975 C106.030688,20.5065783 105.970076,20.7037712 105.826066,20.8310358 C105.682056,20.9583004 105.478905,20.9942003 105.3,20.924 C104.608,20.712 35.552,0.26 3.128,43.488 C3.03107948,43.620468 2.87612673,43.6979444 2.712,43.6960357 L2.712,43.6960357 Z" id="Path"></path>
                    <path d="M12.252,59.108 C12.0665067,59.0996701 11.9000611,58.9915663 11.8170223,58.8254888 C11.7339836,58.6594114 11.7473679,58.4613926 11.852,58.308 C44.704,15.244 114.056,32.268 114.752,32.44 C115.001137,32.5287294 115.1417,32.7926024 115.076338,33.0488636 C115.010976,33.3051247 114.761199,33.4694372 114.5,33.428 C113.808,33.256 45.1,16.404 12.664,58.928 C12.5617655,59.0483145 12.4097407,59.1147331 12.252,59.108 Z" id="Path"></path>
                </g>
            </g>
        </g>
    </g>
</svg>